# Blender v2.79 (sub 0) OBJ File: ''
# www.blender.org
mtllib log0.mtl
o Cube
v -0.000000 0.000000 0.950000
v -0.000000 0.600000 0.950000
v 0.360300 0.433189 0.925220
v 0.064843 0.425876 0.993968
v -0.360300 0.503387 -0.927720
v -0.064682 0.210594 -0.993983
v -0.237090 0.422799 0.963318
v 0.298614 0.473536 -0.021541
v -0.000000 0.600000 -0.002500
v 0.000000 0.000000 -0.002500
v 0.000000 0.000000 -0.952500
v 0.000000 0.600000 -0.952500
v 0.237090 0.513777 -0.965818
v -0.298776 0.463146 0.016556
v -0.298776 0.163146 0.016556
v 0.237090 0.213777 -0.965818
v 0.298614 0.173536 -0.021541
v -0.237090 0.122799 0.963318
v -0.064681 0.510594 -0.993983
v -0.360300 0.203387 -0.927720
v 0.064843 0.125876 0.993968
v 0.360300 0.133189 0.925220
v 0.240075 0.033297 0.943805
v -0.016170 0.052649 -0.986621
v 0.160109 0.513988 -0.996466
v 0.016211 0.031469 0.985992
v 0.288055 0.430302 0.967257
v -0.240075 0.050847 -0.946305
v -0.159987 0.422510 0.995830
v -0.287934 0.506195 -0.967892
v 0.240075 0.558297 0.943805
v -0.016170 0.577649 -0.986620
v 0.016211 0.556469 0.985992
v -0.240075 0.575847 -0.946305
v 0.224653 0.043384 -0.007260
v -0.209272 0.030700 0.953329
v 0.224653 0.568384 -0.007260
v -0.209273 0.555700 0.953329
v -0.254130 0.133945 0.701778
v 0.343260 0.144335 0.663680
v -0.000000 0.600000 0.686875
v -0.000000 0.000000 0.686875
v -0.224694 0.040787 0.002264
v -0.224694 0.565787 0.002264
v 0.209272 0.053444 -0.955830
v 0.209273 0.578444 -0.955829
v 0.000000 0.000000 -0.691250
v 0.000000 0.600000 -0.691250
v 0.254009 0.202711 -0.706142
v -0.343381 0.192321 -0.668044
v 0.160109 0.213988 -0.996466
v 0.288055 0.130302 0.967256
v -0.159987 0.122510 0.995830
v -0.287934 0.206195 -0.967893
v -0.254130 0.433945 0.701778
v 0.343259 0.444335 0.663681
v 0.254009 0.502711 -0.706142
v -0.343381 0.492321 -0.668044
v -0.298164 0.319720 0.026085
v 0.205634 0.395666 -0.972477
v 0.297921 0.335304 -0.031062
v -0.205634 0.259199 0.969977
v -0.097022 0.390892 -0.990974
v -0.390450 0.380081 -0.915330
v 0.097265 0.263815 0.990952
v 0.390450 0.274784 0.912830
v 0.137826 0.095106 -0.982596
v 0.194691 0.057912 0.968781
v -0.137772 0.054449 0.981480
v -0.194637 0.091642 -0.969897
v 0.137826 0.561772 -0.982596
v 0.194691 0.524579 0.968781
v -0.137772 0.521115 0.981480
v -0.194637 0.558309 -0.969897
v 0.235815 0.036084 0.681076
v -0.213533 0.033486 0.690601
v 0.235815 0.561084 0.681077
v -0.213533 0.558486 0.690601
v -0.235845 0.048080 -0.685449
v -0.235845 0.573080 -0.685448
v 0.213502 0.050678 -0.694973
v 0.213502 0.575678 -0.694973
v 0.127663 0.395981 -1.000636
v 0.319582 0.270453 0.957134
v -0.127481 0.258765 0.999995
v -0.319400 0.384293 -0.957776
v -0.231195 0.275918 0.709230
v 0.364889 0.291502 0.652083
v 0.231013 0.379066 -0.713588
v -0.365071 0.363482 -0.656441
vn 0.1441 -0.9895 -0.0064
vn 0.1386 -0.6949 0.7056
vn -0.1028 -0.6800 0.7260
vn -0.1502 -0.9887 -0.0040
vn 0.1671 0.9859 0.0039
vn -0.1988 0.9800 0.0068
vn -0.1221 0.5444 0.8299
vn 0.1465 0.5781 0.8027
vn 0.9830 0.1690 -0.0712
vn 0.7273 0.6863 -0.0113
vn 0.3971 0.3073 0.8648
vn 0.5147 0.0392 0.8565
vn 0.1349 -0.0136 0.9908
vn 0.1150 0.1009 0.9882
vn -0.0167 0.0950 0.9953
vn 0.0241 0.0083 0.9997
vn -0.9738 0.2088 0.0906
vn -0.5528 0.8321 0.0446
vn -0.3649 0.4951 -0.7885
vn -0.5003 0.0464 -0.8646
vn -0.0269 -0.0080 -0.9996
vn 0.0132 -0.0752 -0.9971
vn -0.1123 -0.0779 -0.9906
vn -0.1322 0.0128 -0.9911
vn -0.3734 -0.0423 0.9267
vn -0.3379 0.1703 0.9256
vn -0.9645 0.2601 0.0461
vn -0.9840 -0.1633 0.0716
vn 0.9928 -0.0843 -0.0855
vn 0.8247 0.5653 -0.0185
vn 0.7581 0.6520 -0.0135
vn 0.9940 0.0771 -0.0770
vn 0.1267 0.9919 0.0042
vn -0.1314 0.9913 0.0063
vn -0.1702 0.9854 0.0066
vn 0.1515 0.9884 0.0040
vn 0.2098 -0.9777 -0.0069
vn 0.1699 -0.9854 -0.0066
vn -0.1672 -0.9859 -0.0039
vn -0.1895 -0.9819 -0.0037
vn 0.1220 -0.4558 -0.8817
vn 0.2390 -0.9710 -0.0071
vn -0.2036 -0.9790 -0.0035
vn -0.1512 -0.4847 -0.8615
vn 0.0817 0.7815 -0.6185
vn -0.1150 0.7889 -0.6036
vn -0.1065 0.9943 0.0061
vn 0.1080 0.9941 0.0044
vn 0.3542 -0.0530 -0.9337
vn 0.3091 0.3272 -0.8930
vn 0.8939 0.4475 -0.0244
vn 0.9727 -0.2138 -0.0907
vn -0.9943 -0.0733 0.0772
vn -0.8895 0.4544 0.0482
vn -0.7056 0.7070 0.0475
vn -0.9928 0.0835 0.0854
vn -0.8878 -0.4596 0.0239
vn -0.9937 0.0735 0.0850
vn -0.9946 -0.0690 0.0774
vn -0.8253 -0.5644 0.0185
vn 0.3232 -0.1380 -0.9362
vn 0.3547 0.0345 -0.9343
vn 0.9865 0.1471 -0.0726
vn 0.9753 -0.2164 -0.0454
vn 0.9241 -0.3792 -0.0476
vn 0.9948 0.0658 -0.0776
vn 0.9937 -0.0732 -0.0850
vn 0.7918 -0.6089 -0.0484
vn -0.3336 -0.2426 0.9110
vn -0.3729 0.0507 0.9265
vn -0.9783 0.1866 0.0898
vn -0.9409 -0.3375 0.0293
vn 0.0099 0.1796 -0.9837
vn -0.0272 0.0123 -0.9996
vn -0.1314 -0.0191 -0.9911
vn -0.1148 0.1805 -0.9769
vn -0.7923 -0.6100 0.0160
vn -0.9857 -0.1519 0.0723
vn -0.4978 -0.0315 -0.8667
vn -0.3904 -0.2436 -0.8878
vn 0.1182 -0.1386 0.9833
vn 0.1342 0.0159 0.9908
vn 0.0244 -0.0100 0.9997
vn -0.0139 -0.1339 0.9909
vn 0.6700 -0.7409 -0.0469
vn 0.9790 -0.1830 -0.0896
vn 0.5177 -0.0451 0.8544
vn 0.3979 -0.3968 0.8272
usemtl Material
s off
f 1//1 42//1 75//1 23//1
f 1//2 23//2 68//2 26//2
f 1//3 26//3 69//3 36//3
f 1//4 36//4 76//4 42//4
f 2//5 31//5 77//5 41//5
f 2//6 41//6 78//6 38//6
f 2//7 38//7 73//7 33//7
f 2//8 33//8 72//8 31//8
f 3//9 66//9 88//9 56//9
f 3//10 56//10 77//10 31//10
f 3//11 31//11 72//11 27//11
f 3//12 27//12 84//12 66//12
f 4//13 65//13 84//13 27//13
f 4//14 27//14 72//14 33//14
f 4//15 33//15 73//15 29//15
f 4//16 29//16 85//16 65//16
f 5//17 64//17 90//17 58//17
f 5//18 58//18 80//18 34//18
f 5//19 34//19 74//19 30//19
f 5//20 30//20 86//20 64//20
f 6//21 63//21 83//21 51//21
f 6//22 51//22 67//22 24//22
f 6//23 24//23 70//23 54//23
f 6//24 54//24 86//24 63//24
f 7//25 62//25 85//25 29//25
f 7//26 29//26 73//26 38//26
f 7//27 38//27 78//27 55//27
f 7//28 55//28 87//28 62//28
f 8//29 61//29 89//29 57//29
f 8//30 57//30 82//30 37//30
f 8//31 37//31 77//31 56//31
f 8//32 56//32 88//32 61//32
f 9//33 37//33 82//33 48//33
f 9//34 48//34 80//34 44//34
f 9//35 44//35 78//35 41//35
f 9//36 41//36 77//36 37//36
f 10//37 47//37 81//37 35//37
f 10//38 35//38 75//38 42//38
f 10//39 42//39 76//39 43//39
f 10//40 43//40 79//40 47//40
f 11//41 24//41 67//41 45//41
f 11//42 45//42 81//42 47//42
f 11//43 47//43 79//43 28//43
f 11//44 28//44 70//44 24//44
f 12//45 46//45 71//45 32//45
f 12//46 32//46 74//46 34//46
f 12//47 34//47 80//47 48//47
f 12//48 48//48 82//48 46//48
f 13//49 60//49 83//49 25//49
f 13//50 25//50 71//50 46//50
f 13//51 46//51 82//51 57//51
f 13//52 57//52 89//52 60//52
f 14//53 59//53 87//53 55//53
f 14//54 55//54 78//54 44//54
f 14//55 44//55 80//55 58//55
f 14//56 58//56 90//56 59//56
f 15//57 43//57 76//57 39//57
f 15//58 39//58 87//58 59//58
f 15//59 59//59 90//59 50//59
f 15//60 50//60 79//60 43//60
f 16//61 45//61 67//61 51//61
f 16//62 51//62 83//62 60//62
f 16//63 60//63 89//63 49//63
f 16//64 49//64 81//64 45//64
f 17//65 35//65 81//65 49//65
f 17//66 49//66 89//66 61//66
f 17//67 61//67 88//67 40//67
f 17//68 40//68 75//68 35//68
f 18//69 36//69 69//69 53//69
f 18//70 53//70 85//70 62//70
f 18//71 62//71 87//71 39//71
f 18//72 39//72 76//72 36//72
f 19//73 32//73 71//73 25//73
f 19//74 25//74 83//74 63//74
f 19//75 63//75 86//75 30//75
f 19//76 30//76 74//76 32//76
f 20//77 28//77 79//77 50//77
f 20//78 50//78 90//78 64//78
f 20//79 64//79 86//79 54//79
f 20//80 54//80 70//80 28//80
f 21//81 26//81 68//81 52//81
f 21//82 52//82 84//82 65//82
f 21//83 65//83 85//83 53//83
f 21//84 53//84 69//84 26//84
f 22//85 23//85 75//85 40//85
f 22//86 40//86 88//86 66//86
f 22//87 66//87 84//87 52//87
f 22//88 52//88 68//88 23//88
