# Blender v2.79 (sub 0) OBJ File: ''
# www.blender.org
mtllib log2.mtl
o Cube
v -0.000000 0.000000 0.950000
v 0.372587 0.399409 0.920203
v -0.298776 0.463146 0.077344
v 0.146297 0.464474 0.822671
v 0.000000 0.000000 -0.002500
v 0.000000 0.000000 -0.952500
v -0.060219 0.483278 0.665756
v -0.298776 0.163146 0.016556
v 0.253725 0.157446 -0.962318
v 0.286554 0.199386 -0.157703
v -0.237090 0.122799 0.963318
v -0.360300 0.203387 -0.927720
v 0.064843 0.125876 0.993968
v 0.360300 0.133189 0.925220
v 0.205094 0.364050 -0.854354
v -0.055223 0.179662 -0.992115
v -0.109676 0.371808 -0.938243
v -0.000000 0.600000 0.135286
v 0.203844 0.331872 -0.957592
v -0.002734 0.390988 -0.831131
v -0.138149 0.534250 -0.461634
v 0.075198 0.389019 0.958301
v 0.196326 0.341600 0.988062
v 0.308656 0.483716 0.267355
v 0.031721 0.469043 -0.637019
v 0.240075 0.033297 0.943805
v -0.013806 0.044915 -0.986154
v 0.016211 0.031469 0.985992
v -0.240075 0.050847 -0.946305
v 0.221639 0.049847 -0.041301
v -0.209272 0.030700 0.953329
v -0.254130 0.133945 0.701778
v 0.340245 0.150797 0.629640
v -0.000000 0.000000 0.686875
v -0.224694 0.040787 0.002264
v 0.213431 0.039362 -0.954955
v 0.000000 0.000000 -0.691250
v 0.262329 0.169692 -0.737676
v -0.343381 0.192321 -0.668044
v 0.288055 0.130302 0.967256
v -0.159987 0.122510 0.995830
v -0.285569 0.198462 -0.967426
v 0.353728 0.424332 0.732554
v -0.298164 0.319720 0.041282
v 0.304736 0.339524 0.062954
v -0.127562 0.250754 0.968723
v -0.327794 0.347186 -0.917961
v 0.130136 0.242745 0.989475
v 0.393522 0.266339 0.911576
v 0.203652 0.345923 -0.916532
v -0.209912 0.449065 0.522803
v 0.176091 0.161239 -0.993256
v -0.224694 0.565787 0.112695
v 0.051356 0.449397 0.766206
v 0.090096 0.411729 0.899956
v -0.287843 0.500037 -0.355756
v -0.082556 0.382845 -0.888472
v -0.096447 0.317529 -0.974704
v 0.152151 0.381313 -0.830716
v -0.034537 0.583563 -0.213809
v 0.108356 0.373319 0.990178
v -0.055219 0.501511 -0.575208
v -0.043962 0.416790 -0.758260
v 0.218117 0.279776 -0.966046
v 0.124166 0.344340 -0.960732
v 0.227574 0.322438 -0.661654
v 0.212497 0.489285 -0.356177
v 0.331398 0.381111 0.961604
v 0.227164 0.570929 0.176408
v 0.274234 0.463327 0.939608
v -0.015055 0.570820 0.467768
v 0.268625 0.522944 0.657700
v 0.144929 0.071662 -0.981169
v 0.194691 0.057912 0.968781
v -0.137772 0.054449 0.981480
v -0.193586 0.088205 -0.969689
v 0.235061 0.037699 0.672566
v -0.213533 0.033486 0.690601
v -0.235845 0.048080 -0.685449
v 0.215582 0.042423 -0.702856
v 0.330418 0.258155 0.955721
v -0.060395 0.246467 0.998582
v -0.257116 0.299761 -0.953587
v -0.154769 0.290822 0.799704
v 0.368583 0.286920 0.674749
v -0.330276 0.394345 -0.750126
v 0.187152 0.397360 -0.602054
v 0.129979 0.363893 -0.907406
v 0.220851 0.294144 -0.868649
v 0.138656 0.287634 -0.987691
v -0.194597 0.555572 -0.175387
v 0.149837 0.555884 -0.285237
v 0.270136 0.482941 0.844826
v -0.159961 0.532918 0.392742
v 0.245760 0.415667 0.966555
v 0.183351 0.551556 0.561119
vn 0.1474 -0.9890 -0.0095
vn 0.1386 -0.6949 0.7056
vn -0.1028 -0.6800 0.7260
vn -0.1502 -0.9887 -0.0040
vn 0.9848 0.1513 -0.0854
vn 0.5950 0.8000 0.0778
vn 0.3559 0.4644 0.8109
vn 0.6334 0.0055 0.7738
vn -0.9926 0.1183 0.0279
vn -0.9816 -0.0311 0.1883
vn -0.7653 0.6113 0.2016
vn -0.6790 0.7340 -0.0115
vn -0.1745 0.9414 0.2887
vn -0.4860 0.7943 0.3645
vn -0.1916 0.9379 0.2893
vn 0.2070 -0.9783 0.0045
vn 0.1871 -0.9823 -0.0103
vn -0.1672 -0.9859 -0.0039
vn -0.1895 -0.9819 -0.0037
vn 0.1015 -0.5397 -0.8357
vn 0.1874 -0.9823 0.0051
vn -0.2036 -0.9790 -0.0035
vn -0.1615 -0.5181 -0.8399
vn -0.4380 0.8426 0.3132
vn -0.5213 0.6450 0.5587
vn -0.0882 0.9157 0.3922
vn -0.8878 -0.4596 0.0239
vn -0.9581 0.2528 0.1350
vn -0.9974 0.0470 0.0551
vn -0.8253 -0.5644 0.0185
vn 0.3150 -0.1954 -0.9288
vn 0.3225 0.1017 -0.9411
vn 0.9613 0.2696 -0.0561
vn 0.9418 -0.3359 -0.0105
vn 0.9252 -0.3793 -0.0112
vn 0.9671 0.2481 -0.0563
vn 0.9645 0.2410 -0.1084
vn 0.9927 -0.0813 -0.0893
vn 0.8209 -0.5679 -0.0597
vn -0.3336 -0.2426 0.9110
vn -0.3733 0.2812 0.8841
vn -0.8224 0.5488 0.1498
vn -0.9409 -0.3375 0.0293
vn -0.7923 -0.6100 0.0160
vn -0.9906 0.1353 0.0220
vn -0.3985 0.1856 -0.8982
vn -0.3942 -0.2481 -0.8849
vn 0.1182 -0.1386 0.9833
vn 0.1412 0.0027 0.9900
vn 0.0264 -0.0108 0.9996
vn -0.0139 -0.1339 0.9909
vn 0.6772 -0.7335 -0.0584
vn 0.9726 -0.2110 -0.0973
vn 0.5400 -0.0755 0.8383
vn 0.3979 -0.3968 0.8272
vn 0.9700 0.2329 -0.0696
vn 0.1914 0.9425 -0.2738
vn 0.6796 0.7320 -0.0483
vn 0.0115 -0.0797 -0.9968
vn -0.1108 -0.0753 -0.9910
vn -0.1152 0.1226 -0.9857
vn -0.0219 0.0801 -0.9965
vn -0.1106 0.9632 -0.2451
vn 0.0705 0.9499 -0.3044
vn -0.0052 0.4952 -0.8688
vn -0.1486 0.4873 -0.8605
vn 0.1323 0.9896 -0.0567
vn -0.1611 0.9861 -0.0401
vn -0.2196 0.9687 0.1159
vn 0.0892 0.9932 0.0746
vn 0.9618 0.2641 -0.0719
vn 0.1875 0.3485 -0.9184
vn 0.1704 0.9251 -0.3395
vn 0.0638 0.9702 -0.2336
vn -0.0490 0.9699 -0.2383
vn 0.1284 0.9827 -0.1337
vn -0.2635 0.9252 -0.2731
vn -0.2492 0.9609 -0.1207
vn 0.0644 0.9724 -0.2244
vn -0.5223 0.8143 0.2531
vn -0.3550 0.5510 0.7552
vn -0.1398 0.6681 0.7308
vn -0.3086 0.9222 0.2331
vn 0.0404 0.0014 0.9992
vn 0.1884 -0.0768 0.9791
vn 0.1174 0.2039 0.9719
vn 0.9733 0.1712 -0.1530
vn 0.7320 0.6701 -0.1229
vn 0.5416 0.8398 0.0371
vn 0.7370 0.6740 0.0501
vn 0.9889 0.1199 -0.0875
vn 0.3057 0.8954 -0.3237
vn 0.4560 0.7785 -0.4312
vn -0.0548 0.9049 -0.4222
usemtl Material
s off
f 1//1 34//1 77//1 26//1
f 1//2 26//2 74//2 28//2
f 1//3 28//3 75//3 31//3
f 1//4 31//4 78//4 34//4
f 2//5 49//5 85//5 43//5
f 2//6 43//6 93//6 70//6
f 2//7 70//7 95//7 68//7
f 2//8 68//8 81//8 49//8
f 3//9 56//9 86//9 44//9
f 3//10 44//10 84//10 51//10
f 3//11 51//11 94//11 53//11
f 3//12 53//12 91//12 56//12
f 4//13 72//13 96//13 54//13
f 4//14 54//14 84//14 55//14
f 4//15 55//15 93//15 72//15
f 5//16 37//16 80//16 30//16
f 5//17 30//17 77//17 34//17
f 5//18 34//18 78//18 35//18
f 5//19 35//19 79//19 37//19
f 6//20 27//20 73//20 36//20
f 6//21 36//21 80//21 37//21
f 6//22 37//22 79//22 29//22
f 6//23 29//23 76//23 27//23
f 7//24 71//24 94//24 51//24
f 7//25 51//25 84//25 54//25
f 7//26 54//26 96//26 71//26
f 8//27 35//27 78//27 32//27
f 8//28 32//28 84//28 44//28
f 8//29 44//29 86//29 39//29
f 8//30 39//30 79//30 35//30
f 9//31 36//31 73//31 52//31
f 9//32 52//32 90//32 64//32
f 9//33 64//33 89//33 38//33
f 9//34 38//34 80//34 36//34
f 10//35 30//35 80//35 38//35
f 10//36 38//36 89//36 66//36
f 10//37 66//37 87//37 45//37
f 10//38 45//38 85//38 33//38
f 10//39 33//39 77//39 30//39
f 11//40 31//40 75//40 41//40
f 11//41 41//41 82//41 46//41
f 11//42 46//42 84//42 32//42
f 11//43 32//43 78//43 31//43
f 12//44 29//44 79//44 39//44
f 12//45 39//45 86//45 47//45
f 12//46 47//46 83//46 42//46
f 12//47 42//47 76//47 29//47
f 13//48 28//48 74//48 40//48
f 13//49 40//49 81//49 48//49
f 13//50 48//50 82//50 41//50
f 13//51 41//51 75//51 28//51
f 14//52 26//52 77//52 33//52
f 14//53 33//53 85//53 49//53
f 14//54 49//54 81//54 40//54
f 14//55 40//55 74//55 26//55
f 15//56 66//56 89//56 50//56
f 15//57 50//57 88//57 59//57
f 15//58 59//58 87//58 66//58
f 16//59 52//59 73//59 27//59
f 16//60 27//60 76//60 42//60
f 16//61 42//61 83//61 58//61
f 16//62 58//62 90//62 52//62
f 17//63 47//63 86//63 57//63
f 17//64 57//64 88//64 65//64
f 17//65 65//65 90//65 58//65
f 17//66 58//66 83//66 47//66
f 18//67 69//67 92//67 60//67
f 18//68 60//68 91//68 53//68
f 18//69 53//69 94//69 71//69
f 18//70 71//70 96//70 69//70
f 19//71 50//71 89//71 64//71
f 19//72 64//72 90//72 65//72
f 19//73 65//73 88//73 50//73
f 20//74 59//74 88//74 57//74
f 20//75 57//75 86//75 63//75
f 20//76 63//76 87//76 59//76
f 21//77 62//77 86//77 56//77
f 21//78 56//78 91//78 60//78
f 21//79 60//79 92//79 62//79
f 22//80 55//80 84//80 46//80
f 22//81 46//81 82//81 61//81
f 22//82 61//82 95//82 70//82
f 22//83 70//83 93//83 55//83
f 23//84 61//84 82//84 48//84
f 23//85 48//85 81//85 68//85
f 23//86 68//86 95//86 61//86
f 24//87 45//87 87//87 67//87
f 24//88 67//88 92//88 69//88
f 24//89 69//89 96//89 72//89
f 24//90 72//90 93//90 43//90
f 24//91 43//91 85//91 45//91
f 25//92 62//92 92//92 67//92
f 25//93 67//93 87//93 63//93
f 25//94 63//94 86//94 62//94
