# Blender v2.79 (sub 0) OBJ File: ''
# www.blender.org
mtllib log1.mtl
o Cube
v -0.000000 0.000000 0.950000
v 0.014096 0.399116 0.950000
v 0.273405 0.244416 0.950001
v -0.000000 0.367907 1.000000
v -0.273405 0.491397 -0.952500
v -0.007048 0.168349 -1.000000
v -0.273405 0.491397 0.950000
v 0.273405 0.244416 -0.002499
v 0.014096 0.399116 -0.002500
v 0.000000 0.000000 -0.002500
v 0.000000 0.000000 -0.952500
v 0.014096 0.399116 -0.952500
v 0.273405 0.244416 -0.952500
v -0.273405 0.491397 -0.002500
v -0.293751 0.230094 -0.002500
v 0.279654 0.106604 -0.952500
v 0.279654 0.106604 -0.002500
v -0.293751 0.230094 0.950000
v 0.000000 0.367906 -1.000000
v -0.293751 0.230094 -0.952500
v -0.007048 0.168349 1.000000
v 0.279654 0.106604 0.950000
v 0.219914 0.026651 0.950000
v -0.001762 0.042087 -0.988125
v 0.205054 0.275289 -0.988125
v -0.001762 0.042087 0.987500
v 0.205053 0.275289 0.987500
v -0.223438 0.057523 -0.952500
v -0.205054 0.460524 0.987500
v -0.205054 0.460524 -0.988125
v 0.215626 0.298696 0.950000
v 0.010572 0.391313 -0.988125
v 0.010572 0.391313 0.987500
v -0.194481 0.483931 -0.952500
v 0.219914 0.026651 -0.002500
v -0.223438 0.057523 0.950000
v 0.215626 0.298696 -0.002500
v -0.194481 0.483931 0.950000
v -0.293751 0.230094 0.686875
v 0.279654 0.106604 0.686875
v 0.014096 0.399116 0.686875
v -0.000000 0.000000 0.686875
v -0.223438 0.057523 -0.002500
v -0.194481 0.483931 -0.002500
v 0.219914 0.026651 -0.952500
v 0.215626 0.298696 -0.952500
v 0.000000 0.000000 -0.691250
v 0.014096 0.399116 -0.691250
v 0.279654 0.106604 -0.691250
v -0.293751 0.230094 -0.691250
v 0.207979 0.122040 -0.988125
v 0.207979 0.122040 0.987500
v -0.222075 0.214658 0.987500
v -0.222075 0.214658 -0.988125
v -0.273405 0.491397 0.686875
v 0.273405 0.244416 0.686876
v 0.273405 0.244416 -0.691249
v -0.273405 0.491397 -0.691250
v -0.285539 0.410466 -0.002500
v 0.267919 0.194358 -0.952500
v 0.267919 0.194359 -0.002500
v -0.285540 0.410466 0.950000
v -0.008810 0.302412 -1.000000
v -0.285539 0.410466 -0.952500
v -0.008810 0.302413 1.000000
v 0.267919 0.194359 0.950000
v 0.159102 0.054240 -0.978889
v 0.159102 0.054240 0.977778
v -0.165367 0.095403 0.977778
v -0.165367 0.095403 -0.978889
v 0.159723 0.316639 -0.978889
v 0.159723 0.316639 0.977778
v -0.144060 0.453851 0.977778
v -0.144060 0.453851 -0.978889
v 0.219914 0.026651 0.686875
v -0.223438 0.057523 0.686875
v 0.215626 0.298696 0.686875
v -0.194481 0.483931 0.686875
v -0.223438 0.057523 -0.691250
v -0.194481 0.483931 -0.691250
v 0.219914 0.026651 -0.691250
v 0.215626 0.298696 -0.691250
v 0.198737 0.221372 -0.988125
v 0.198736 0.221372 0.987500
v -0.216357 0.383453 0.987500
v -0.216357 0.383453 -0.988125
v -0.285540 0.410466 0.686875
v 0.267919 0.194359 0.686875
v 0.267919 0.194358 -0.691250
v -0.285539 0.410466 -0.691250
vn 0.1203 -0.9927 0.0000
vn 0.0847 -0.6397 0.7640
vn -0.1766 -0.5448 0.8198
vn -0.2493 -0.9684 0.0000
vn 0.4460 0.8950 0.0000
vn 0.3767 0.9263 -0.0000
vn 0.3565 0.8962 0.2640
vn 0.4367 0.8600 0.2640
vn 0.9940 -0.1089 0.0000
vn 0.6847 0.7288 -0.0000
vn 0.5394 0.6375 0.5500
vn 0.4610 -0.0523 0.8858
vn 0.0574 -0.0073 0.9983
vn 0.2596 0.4352 0.8621
vn 0.1549 0.4825 0.8621
vn -0.0571 0.0081 0.9983
vn -0.9889 0.1483 -0.0000
vn 0.0942 0.9956 0.0000
vn 0.1198 0.8130 -0.5697
vn -0.4374 0.0649 -0.8969
vn 0.0569 0.0027 -0.9984
vn 0.0450 -0.1180 -0.9920
vn -0.0832 -0.1062 -0.9909
vn -0.0559 0.0007 -0.9984
vn -0.4556 0.0676 0.8876
vn 0.1217 0.8262 0.5500
vn 0.0821 -0.6204 -0.7800
vn -0.1705 -0.5260 -0.8332
vn 0.4351 0.8568 -0.2768
vn 0.3552 0.8929 -0.2768
vn 0.4427 -0.0502 -0.8953
vn 0.5308 0.6274 -0.5697
vn -0.9261 -0.3773 -0.0000
vn -0.9990 0.0455 -0.0000
vn 0.3248 -0.2950 -0.8986
vn 0.4632 0.0519 -0.8847
vn 0.9912 0.1325 0.0000
vn 0.8011 -0.5986 0.0000
vn -0.4106 -0.2083 0.8877
vn -0.4655 0.0186 0.8848
vn 0.2498 0.4187 -0.8731
vn 0.0546 -0.0069 -0.9985
vn -0.0543 0.0077 -0.9985
vn 0.1490 0.4642 -0.8731
vn -0.4470 0.0178 -0.8943
vn -0.3942 -0.2000 -0.8970
vn 0.0473 -0.1241 0.9911
vn 0.0599 0.0028 0.9982
vn -0.0588 0.0008 0.9983
vn -0.0875 -0.1117 0.9899
vn 0.4819 0.0540 0.8745
vn 0.3384 -0.3073 0.8894
usemtl Material
s off
f 1//1 42//1 75//1 23//1
f 1//2 23//2 68//2 26//2
f 1//3 26//3 69//3 36//3
f 1//4 36//4 76//4 42//4
f 2//5 31//5 77//5 41//5
f 2//6 41//6 78//6 38//6
f 2//7 38//7 73//7 33//7
f 2//8 33//8 72//8 31//8
f 3//9 66//9 88//9 56//9
f 3//10 56//10 77//10 31//10
f 3//11 31//11 72//11 27//11
f 3//12 27//12 84//12 66//12
f 4//13 65//13 84//13 27//13
f 4//14 27//14 72//14 33//14
f 4//15 33//15 73//15 29//15
f 4//16 29//16 85//16 65//16
f 5//17 64//17 90//17 58//17
f 5//18 58//18 80//18 34//18
f 5//19 34//19 74//19 30//19
f 5//20 30//20 86//20 64//20
f 6//21 63//21 83//21 51//21
f 6//22 51//22 67//22 24//22
f 6//23 24//23 70//23 54//23
f 6//24 54//24 86//24 63//24
f 7//25 62//25 85//25 29//25
f 7//26 29//26 73//26 38//26
f 7//18 38//18 78//18 55//18
f 7//17 55//17 87//17 62//17
f 8//9 61//9 89//9 57//9
f 8//10 57//10 82//10 37//10
f 8//10 37//10 77//10 56//10
f 8//9 56//9 88//9 61//9
f 9//5 37//5 82//5 48//5
f 9//6 48//6 80//6 44//6
f 9//6 44//6 78//6 41//6
f 9//5 41//5 77//5 37//5
f 10//1 47//1 81//1 35//1
f 10//1 35//1 75//1 42//1
f 10//4 42//4 76//4 43//4
f 10//4 43//4 79//4 47//4
f 11//27 24//27 67//27 45//27
f 11//1 45//1 81//1 47//1
f 11//4 47//4 79//4 28//4
f 11//28 28//28 70//28 24//28
f 12//29 46//29 71//29 32//29
f 12//30 32//30 74//30 34//30
f 12//6 34//6 80//6 48//6
f 12//5 48//5 82//5 46//5
f 13//31 60//31 83//31 25//31
f 13//32 25//32 71//32 46//32
f 13//10 46//10 82//10 57//10
f 13//9 57//9 89//9 60//9
f 14//17 59//17 87//17 55//17
f 14//18 55//18 78//18 44//18
f 14//18 44//18 80//18 58//18
f 14//17 58//17 90//17 59//17
f 15//33 43//33 76//33 39//33
f 15//34 39//34 87//34 59//34
f 15//34 59//34 90//34 50//34
f 15//33 50//33 79//33 43//33
f 16//35 45//35 67//35 51//35
f 16//36 51//36 83//36 60//36
f 16//37 60//37 89//37 49//37
f 16//38 49//38 81//38 45//38
f 17//38 35//38 81//38 49//38
f 17//37 49//37 89//37 61//37
f 17//37 61//37 88//37 40//37
f 17//38 40//38 75//38 35//38
f 18//39 36//39 69//39 53//39
f 18//40 53//40 85//40 62//40
f 18//34 62//34 87//34 39//34
f 18//33 39//33 76//33 36//33
f 19//41 32//41 71//41 25//41
f 19//42 25//42 83//42 63//42
f 19//43 63//43 86//43 30//43
f 19//44 30//44 74//44 32//44
f 20//33 28//33 79//33 50//33
f 20//34 50//34 90//34 64//34
f 20//45 64//45 86//45 54//45
f 20//46 54//46 70//46 28//46
f 21//47 26//47 68//47 52//47
f 21//48 52//48 84//48 65//48
f 21//49 65//49 85//49 53//49
f 21//50 53//50 69//50 26//50
f 22//38 23//38 75//38 40//38
f 22//37 40//37 88//37 66//37
f 22//51 66//51 84//51 52//51
f 22//52 52//52 68//52 23//52
